<svg width="116" height="80" viewBox="0 0 116 80" fill="none" xmlns="http://www.w3.org/2000/svg">
<rect width="8" height="8" rx="4" fill="white"/>
<rect y="36" width="8" height="8" rx="4" fill="white"/>
<rect y="18" width="8" height="8" rx="4" fill="white"/>
<rect y="54" width="8" height="8" rx="4" fill="white"/>
<rect y="72" width="8" height="8" rx="4" fill="white"/>
<rect x="18" width="8" height="8" rx="4" fill="white"/>
<rect x="18" y="36" width="8" height="8" rx="4" fill="white"/>
<rect x="18" y="18" width="8" height="8" rx="4" fill="white"/>
<rect x="18" y="54" width="8" height="8" rx="4" fill="white"/>
<rect x="18" y="72" width="8" height="8" rx="4" fill="white"/>
<rect x="36" width="8" height="8" rx="4" fill="white"/>
<rect x="36" y="36" width="8" height="8" rx="4" fill="white"/>
<rect x="36" y="18" width="8" height="8" rx="4" fill="white"/>
<rect x="36" y="54" width="8" height="8" rx="4" fill="white"/>
<rect x="36" y="72" width="8" height="8" rx="4" fill="white"/>
<rect x="54" width="8" height="8" rx="4" fill="white"/>
<rect x="54" y="36" width="8" height="8" rx="4" fill="white"/>
<rect x="54" y="18" width="8" height="8" rx="4" fill="white"/>
<rect x="54" y="54" width="8" height="8" rx="4" fill="white"/>
<rect x="54" y="72" width="8" height="8" rx="4" fill="white"/>
<rect x="90" width="8" height="8" rx="4" fill="white"/>
<rect x="90" y="36" width="8" height="8" rx="4" fill="white"/>
<rect x="90" y="18" width="8" height="8" rx="4" fill="white"/>
<rect x="90" y="54" width="8" height="8" rx="4" fill="white"/>
<rect x="90" y="72" width="8" height="8" rx="4" fill="white"/>
<rect x="72" width="8" height="8" rx="4" fill="white"/>
<rect x="72" y="36" width="8" height="8" rx="4" fill="white"/>
<rect x="72" y="18" width="8" height="8" rx="4" fill="white"/>
<rect x="72" y="54" width="8" height="8" rx="4" fill="white"/>
<rect x="72" y="72" width="8" height="8" rx="4" fill="white"/>
<rect x="108" width="8" height="8" rx="4" fill="white"/>
<rect x="108" y="36" width="8" height="8" rx="4" fill="white"/>
<rect x="108" y="18" width="8" height="8" rx="4" fill="white"/>
<rect x="108" y="54" width="8" height="8" rx="4" fill="white"/>
<rect x="108" y="72" width="8" height="8" rx="4" fill="white"/>
</svg>
