<svg width="22" height="22" viewBox="0 0 22 22" fill="none" xmlns="http://www.w3.org/2000/svg">
<path d="M18.9277 9.50469H11.1654V12.6951H15.5998C15.4086 13.7264 14.8285 14.5986 13.9541 15.183C13.215 15.6771 12.2719 15.9693 11.1633 15.9693C9.01697 15.9693 7.20154 14.5191 6.55271 12.5705C6.38943 12.0764 6.2949 11.5479 6.2949 11.0043C6.2949 10.4607 6.38943 9.93223 6.55271 9.43809C7.20369 7.4916 9.01912 6.04141 11.1654 6.04141C12.375 6.04141 13.4599 6.4582 14.315 7.27461L16.6783 4.90918C15.2496 3.57715 13.3869 2.76074 11.1654 2.76074C7.9449 2.76074 5.15837 4.6084 3.80271 7.30254C3.24412 8.41543 2.92615 9.67441 2.92615 11.0064C2.92615 12.3385 3.24412 13.5953 3.80271 14.7082C5.15837 17.4023 7.9449 19.25 11.1654 19.25C13.3912 19.25 15.256 18.5109 16.6181 17.252C18.1758 15.8168 19.076 13.7027 19.076 11.1912C19.076 10.6068 19.0244 10.0461 18.9277 9.50469Z" fill="white"/>
</svg>
