<svg width="28" height="28" viewBox="0 0 28 28" fill="none" xmlns="http://www.w3.org/2000/svg">
<path fill-rule="evenodd" clip-rule="evenodd" d="M2.79997 5.60001C2.55244 5.60001 2.31504 5.69834 2.14001 5.87337C1.96497 6.04841 1.86664 6.2858 1.86664 6.53334C1.86664 6.78087 1.96497 7.01827 2.14001 7.19331C2.31504 7.36834 2.55244 7.46667 2.79997 7.46667H25.2C25.4475 7.46667 25.6849 7.36834 25.8599 7.19331C26.035 7.01827 26.1333 6.78087 26.1333 6.53334C26.1333 6.2858 26.035 6.04841 25.8599 5.87337C25.6849 5.69834 25.4475 5.60001 25.2 5.60001H2.79997ZM1.86664 14C1.86664 13.7525 1.96497 13.5151 2.14001 13.34C2.31504 13.165 2.55244 13.0667 2.79997 13.0667H25.2C25.4475 13.0667 25.6849 13.165 25.8599 13.34C26.035 13.5151 26.1333 13.7525 26.1333 14C26.1333 14.2475 26.035 14.4849 25.8599 14.66C25.6849 14.835 25.4475 14.9333 25.2 14.9333H2.79997C2.55244 14.9333 2.31504 14.835 2.14001 14.66C1.96497 14.4849 1.86664 14.2475 1.86664 14ZM1.86664 21.4667C1.86664 21.2191 1.96497 20.9817 2.14001 20.8067C2.31504 20.6317 2.55244 20.5333 2.79997 20.5333H25.2C25.4475 20.5333 25.6849 20.6317 25.8599 20.8067C26.035 20.9817 26.1333 21.2191 26.1333 21.4667C26.1333 21.7142 26.035 21.9516 25.8599 22.1266C25.6849 22.3017 25.4475 22.4 25.2 22.4H2.79997C2.55244 22.4 2.31504 22.3017 2.14001 22.1266C1.96497 21.9516 1.86664 21.7142 1.86664 21.4667Z" fill="white"/>
</svg>
