<svg width="32" height="32" viewBox="0 0 32 32" fill="none" xmlns="http://www.w3.org/2000/svg">
<path d="M16 2.66666C12.324 2.66666 9.33331 5.65732 9.33331 9.33332V13.3333H7.99998C7.29274 13.3333 6.61446 13.6143 6.11436 14.1144C5.61426 14.6145 5.33331 15.2927 5.33331 16V26.6667C5.33331 27.3739 5.61426 28.0522 6.11436 28.5523C6.61446 29.0524 7.29274 29.3333 7.99998 29.3333H24C24.7072 29.3333 25.3855 29.0524 25.8856 28.5523C26.3857 28.0522 26.6666 27.3739 26.6666 26.6667V16C26.6666 15.2927 26.3857 14.6145 25.8856 14.1144C25.3855 13.6143 24.7072 13.3333 24 13.3333H22.6666V9.33332C22.6666 5.65732 19.676 2.66666 16 2.66666ZM12 9.33332C12 7.12799 13.7946 5.33332 16 5.33332C18.2053 5.33332 20 7.12799 20 9.33332V13.3333H12V9.33332ZM17.3333 23.6307V26.6667H14.6666V23.6307C14.2005 23.3637 13.8262 22.9618 13.5931 22.4778C13.36 21.9938 13.279 21.4506 13.3609 20.9197C13.4428 20.3888 13.6836 19.8952 14.0517 19.5039C14.4197 19.1126 14.8977 18.8421 15.4226 18.728C15.8125 18.6418 16.2168 18.6442 16.6056 18.735C16.9945 18.8259 17.358 19.0028 17.6693 19.2529C17.9806 19.5029 18.2319 19.8197 18.4045 20.1797C18.5771 20.5398 18.6667 20.934 18.6666 21.3333C18.6659 21.7996 18.5422 22.2575 18.3082 22.6608C18.0741 23.0642 17.7378 23.3987 17.3333 23.6307V23.6307Z" fill="black"/>
</svg>
