<svg width="18" height="18" viewBox="0 0 18 18" fill="none" xmlns="http://www.w3.org/2000/svg">
<path d="M15.0463 14.0231C15.8541 13.0512 16.416 11.899 16.6843 10.664C16.9527 9.42896 16.9196 8.1475 16.5879 6.92797C16.2563 5.70845 15.6358 4.58674 14.7789 3.65774C13.9221 2.72875 12.8541 2.01979 11.6653 1.59084C10.4765 1.1619 9.20185 1.02558 7.94923 1.19343C6.69661 1.36128 5.50284 1.82836 4.4689 2.55515C3.43497 3.28194 2.5913 4.24706 2.00925 5.36887C1.4272 6.49067 1.1239 7.73617 1.125 8.99999C1.12543 10.8372 1.77286 12.6156 2.95369 14.0231L2.94244 14.0327C2.98182 14.0799 3.02682 14.1204 3.06732 14.1671C3.11794 14.225 3.1725 14.2796 3.22482 14.3359C3.38232 14.5069 3.54432 14.6711 3.71419 14.8252C3.76594 14.8725 3.81938 14.9164 3.87169 14.9614C4.05169 15.1166 4.23675 15.264 4.42857 15.4012C4.45332 15.4181 4.47582 15.44 4.50057 15.4575V15.4507C5.818 16.3778 7.38962 16.8754 9.00057 16.8754C10.6115 16.8754 12.1831 16.3778 13.5006 15.4507V15.4575C13.5253 15.44 13.5473 15.4181 13.5726 15.4012C13.7638 15.2634 13.9494 15.1166 14.1294 14.9614C14.1818 14.9164 14.2352 14.8719 14.2869 14.8252C14.4568 14.6705 14.6188 14.5069 14.7763 14.3359C14.8286 14.2796 14.8826 14.225 14.9338 14.1671C14.9738 14.1204 15.0193 14.0799 15.0587 14.0321L15.0463 14.0231ZM9 4.49999C9.50064 4.49999 9.99003 4.64844 10.4063 4.92658C10.8226 5.20472 11.147 5.60004 11.3386 6.06257C11.5302 6.52509 11.5803 7.03405 11.4826 7.52506C11.3849 8.01607 11.1439 8.4671 10.7899 8.8211C10.4359 9.1751 9.98484 9.41618 9.49383 9.51385C9.00281 9.61152 8.49386 9.56139 8.03134 9.36981C7.56881 9.17822 7.17348 8.85379 6.89535 8.43752C6.61721 8.02126 6.46875 7.53187 6.46875 7.03124C6.46875 6.35991 6.73544 5.71607 7.21014 5.24137C7.68484 4.76667 8.32867 4.49999 9 4.49999V4.49999ZM4.50394 14.0231C4.5137 13.2845 4.81385 12.5795 5.33945 12.0605C5.86506 11.5415 6.57386 11.2504 7.3125 11.25H10.6875C11.4261 11.2504 12.1349 11.5415 12.6606 12.0605C13.1862 12.5795 13.4863 13.2845 13.4961 14.0231C12.2624 15.1348 10.6606 15.75 9 15.75C7.33936 15.75 5.73759 15.1348 4.50394 14.0231V14.0231Z" fill="white"/>
</svg>
